<svg xmlns="http://www.w3.org/2000/svg" viewBox="0 0 48 48" fill="none">
<defs>
<linearGradient id="m1jyh" x1="10" y1="4" x2="38" y2="44" gradientUnits="userSpaceOnUse">
<stop offset="0" stop-color="#fbeec2"/><stop offset=".42" stop-color="#dcae42"/><stop offset="1" stop-color="#8a5f14"/>
</linearGradient>
<clipPath id="c1jyh"><path d="M8.5 8H39.5L36 17.4C35.2 25.6 30.4 30.6 24 31C17.6 30.6 12.8 25.6 12 17.4Z"/></clipPath>
</defs>
<g fill="none" stroke="url(#m1jyh)" stroke-width="2.6" stroke-linecap="round"><path d="M11.6 11.5C5.1 11.5 4.1 21 10.4 23.2"/><path d="M11.6 11.5C5.1 11.5 4.1 21 10.4 23.2" transform="translate(48 0) scale(-1 1)"/></g>
<path d="M8.5 8H39.5L36 17.4C35.2 25.6 30.4 30.6 24 31C17.6 30.6 12.8 25.6 12 17.4Z" fill="url(#m1jyh)"/>
<g clip-path="url(#c1jyh)">
<path d="M24 0h24v48H24z" fill="#000" opacity=".14"/>
<path d="M17.5 5c-3.5 6-3 15 1.5 21-5-3-7.5-13-5-21z" fill="#fff" opacity=".38"/>
<path d="M11.4 15.2H36.6" stroke="hsl(121 48% 31%)" stroke-width="3.4" opacity=".85"/>
<path d="M11.4 15.2H36.6" stroke="#fff" stroke-width=".8" opacity=".35" transform="translate(0 -1.8)"/>
</g>
<path d="M8.5 8H39.5L36 17.4C35.2 25.6 30.4 30.6 24 31C17.6 30.6 12.8 25.6 12 17.4Z" fill="none" stroke="#ffe9a8" stroke-width="1.1" opacity=".55"/>
<path d="M21.6 30h4.8v6h-4.8z" fill="url(#m1jyh)"/>
<path d="M17.5 35.5h13l2.2 5.2H15.3z" fill="url(#m1jyh)"/><rect x="12.6" y="40.2" width="22.8" height="4.6" rx="1.4" fill="url(#m1jyh)"/>
</svg>
