<svg xmlns="http://www.w3.org/2000/svg" viewBox="0 0 48 48" fill="none">
<defs>
<linearGradient id="m8m4" x1="10" y1="4" x2="38" y2="44" gradientUnits="userSpaceOnUse">
<stop offset="0" stop-color="#fbeec2"/><stop offset=".42" stop-color="#dcae42"/><stop offset="1" stop-color="#8a5f14"/>
</linearGradient>
<clipPath id="c8m4"><path d="M11.5 7.5H36.5V20.5C36.5 28.8 31 34.7 24 37.2C17 34.7 11.5 28.8 11.5 20.5Z"/></clipPath>
</defs>

<path d="M11.5 7.5H36.5V20.5C36.5 28.8 31 34.7 24 37.2C17 34.7 11.5 28.8 11.5 20.5Z" fill="url(#m8m4)"/>
<g clip-path="url(#c8m4)">
<path d="M24 0h24v48H24z" fill="#000" opacity=".14"/>
<path d="M17.5 5c-3.5 6-3 15 1.5 21-5-3-7.5-13-5-21z" fill="#fff" opacity=".38"/>
<path d="M14.5 13H33.5" stroke="hsl(284 48% 31%)" stroke-width="3.4" opacity=".85"/>
<path d="M14.5 13H33.5" stroke="#fff" stroke-width=".8" opacity=".35" transform="translate(0 -1.8)"/>
</g>
<path d="M11.5 7.5H36.5V20.5C36.5 28.8 31 34.7 24 37.2C17 34.7 11.5 28.8 11.5 20.5Z" fill="none" stroke="#ffe9a8" stroke-width="1.1" opacity=".55"/>

<rect x="15" y="38.4" width="18" height="4.4" rx="1.3" fill="url(#m8m4)"/>
</svg>
